<?xml version="1.0" encoding="UTF-8"?>
<!DOCTYPE svg PUBLIC "-//W3C//DTD SVG 1.1//EN" "http://www.w3.org/Graphics/SVG/1.1/DTD/svg11.dtd">
<!-- Creator: CorelDRAW (Versão OEM) -->
<svg xmlns="http://www.w3.org/2000/svg" xml:space="preserve" width="24.5336mm" height="5.8353mm" version="1.1" style="shape-rendering:geometricPrecision; text-rendering:geometricPrecision; image-rendering:optimizeQuality; fill-rule:evenodd; clip-rule:evenodd"
viewBox="0 0 18354 4366"
 xmlns:xlink="http://www.w3.org/1999/xlink"
 xmlns:xodm="http://www.corel.com/coreldraw/odm/2003">
 <defs>
  <style type="text/css">
   <![CDATA[
    .fil0 {fill:white}
   ]]>
  </style>
 </defs>
 <g id="Camada_x0020_1">
  <metadata id="CorelCorpID_0Corel-Layer"/>
  <g id="_1960232936560">
   <path class="fil0" d="M912 2348l-444 -457c-1,-1 -4,-4 -5,-5l-379 -400c-12,-11 -50,-41 -63,-50 -11,20 -20,30 -20,61l0 1332c0,24 17,41 41,41l3248 0c37,0 57,-9 82,-20l0 -1393c-82,19 -160,136 -233,207l-132 134c-17,19 -11,15 -28,34l-270 283c-58,57 -149,194 -228,213 -39,-26 -59,-71 -79,-106l-412 -654c-13,-19 -11,-12 -25,-36l-263 -434 -62 0c-13,19 -11,18 -22,39 -9,17 -10,19 -23,39 -15,23 -9,12 -22,39 -17,35 -2,10 -22,39l-529 947c-17,34 -58,103 -87,128l-22 19z"/>
   <path class="fil0" d="M0 3353l0 748c0,24 17,41 41,41l3248 0c31,0 61,-10 61,-41l0 -748c0,-24 -17,-41 -41,-41l-3268 0c-24,0 -41,17 -41,41z"/>
   <g>
    <path class="fil0" d="M5969 430l0 3780c0,42 11,92 51,92l2828 0c25,0 30,-17 51,-31l0 -492c-137,-32 -87,-20 -256,-20l-2008 0c-15,-22 -31,-34 -31,-72 0,-129 -10,-995 8,-1048 18,-53 61,-50 125,-49l1414 0c233,0 184,62 184,-471 0,-28 -5,-28 -10,-51 -295,-25 -1224,-12 -1568,-10 -83,0 -154,13 -154,-72 0,-122 -8,-969 7,-1018 19,-60 71,-48 167,-48l1895 0c65,0 95,-6 143,-10l0 -512c-23,-5 -24,-10 -51,-10l-2756 0c-24,0 -41,17 -41,41z"/>
    <path class="fil0" d="M16255 2582c-91,0 -94,-37 -80,-110 27,-136 50,-203 110,-321l84 -120c116,-116 243,-207 414,-231 189,-27 186,-19 364,1 268,31 504,288 566,541 39,158 89,240 -65,240l-1394 0zm-738 205c0,169 21,407 71,565 18,58 16,89 42,142 42,86 41,117 120,249 53,89 96,144 165,214 91,95 147,139 258,203l121 63c274,145 659,153 965,130 122,-9 380,-69 482,-123 20,-10 14,-11 39,-23l73 -40c117,-82 103,-56 240,-191 65,-64 172,-212 192,-300l-365 -157c-60,-20 -106,-45 -137,-47 -24,23 -38,44 -57,76 -46,78 -131,169 -214,206 -23,10 -19,6 -43,19 -165,92 -464,107 -658,75l-157 -48c-28,-10 -34,-19 -60,-32 -83,-39 -89,-54 -152,-104 -107,-85 -222,-285 -249,-407l-40 -165c71,-48 165,-31 287,-31 529,0 1059,0 1588,0 345,0 303,30 318,-163 26,-329 -3,-598 -134,-892 -102,-230 -244,-388 -455,-528 -174,-115 -409,-170 -613,-197 -157,-21 -197,-12 -345,-2l-311 58c-30,12 -37,16 -69,23 -60,13 -206,82 -256,112 -138,83 -249,182 -345,311 -26,35 -55,74 -75,110l-63 121c-40,69 -71,194 -94,274 -45,155 -67,340 -67,496z"/>
    <path class="fil0" d="M12823 1414l0 359c0,14 17,40 25,47 19,16 35,15 66,16 128,2 395,-17 472,20 44,190 -22,1683 25,1881 22,95 42,149 82,236 64,141 197,244 334,311 25,12 56,17 86,27 213,74 414,61 633,37 106,-12 297,-66 386,-126 179,-121 176,-55 90,-333 -13,-41 -13,-65 -30,-103 -16,-38 -28,-65 -38,-106 -41,3 -77,26 -107,47 -19,13 -24,20 -42,30 -225,125 -623,137 -731,-119 -21,-49 -42,-84 -42,-152l0 -1598c0,-25 17,-30 31,-51l799 0c44,0 90,2 134,1 53,-1 71,-12 71,-63 0,-109 12,-325 -10,-420 -96,-46 -767,-21 -943,-20 -93,1 -81,-13 -81,-154l1 -615c0,-62 -3,-81 -52,-81 -44,0 -72,8 -102,21l-204 63c-33,11 -70,13 -110,23 -41,11 -49,22 -91,32 -108,26 -77,-3 -77,322 0,85 -1,171 0,256 1,166 -2,134 -389,133 -92,0 -184,-9 -184,82z"/>
    <path class="fil0" d="M9657 41l0 3494c0,229 32,447 177,622 276,331 998,188 1069,112 41,-44 42,-218 71,-359 16,-75 10,-64 4,-129 -86,0 -456,124 -597,-7 -53,-50 -75,-111 -79,-187 -24,-399 -10,-1138 -10,-1558 0,-631 9,-1330 1,-1958 -1,-53 -12,-71 -63,-71l-533 0c-24,0 -41,17 -41,41z"/>
    <path class="fil0" d="M11532 1404l0 2858c0,24 17,41 41,41l531 0c33,0 63,-9 63,-41l0 -2858c0,-58 -46,-72 -102,-72l-481 0c-34,0 -52,37 -52,72z"/>
    <path class="fil0" d="M11430 389c0,154 -11,221 115,346 94,93 200,94 336,94 224,0 389,-136 389,-379 0,-94 -13,-191 -69,-259 -144,-175 -464,-199 -643,-63 -79,60 -129,150 -129,261z"/>
   </g>
  </g>
 </g>
</svg>
