<?xml version="1.0" encoding="UTF-8"?>
<!DOCTYPE svg PUBLIC "-//W3C//DTD SVG 1.1//EN" "http://www.w3.org/Graphics/SVG/1.1/DTD/svg11.dtd">
<!-- Creator: CorelDRAW (Versão OEM) -->
<svg xmlns="http://www.w3.org/2000/svg" xml:space="preserve" width="300mm" height="66.5592mm" version="1.1" style="shape-rendering:geometricPrecision; text-rendering:geometricPrecision; image-rendering:optimizeQuality; fill-rule:evenodd; clip-rule:evenodd"
viewBox="0 0 2948075 654072"
 xmlns:xlink="http://www.w3.org/1999/xlink"
 xmlns:xodm="http://www.corel.com/coreldraw/odm/2003">
 <defs>
  <style type="text/css">
   <![CDATA[
    .fil0 {fill:#203720}
    .fil2 {fill:#203720;fill-rule:nonzero}
    .fil1 {fill:#203720}
   ]]>
  </style>
 </defs>
 <g id="Camada_x0020_1">
  <metadata id="CorelCorpID_0Corel-Layer"/>
  <g id="_2491082185728">
   <g>
    <path class="fil0" d="M89733 207911l-43715 -44999c-145,-147 -370,-344 -517,-490l-37280 -39345c-1230,-1125 -4945,-4059 -6203,-4897 -1050,1983 -2017,2976 -2017,6054l0 131069c0,2366 1672,4037 4038,4037l319608 0c3657,0 5630,-846 8071,-2016l0 -137129c-8087,1877 -15796,13347 -22942,20421l-13002 13213c-1695,1836 -1044,1470 -2740,3308l-26607 27838c-5679,5596 -14697,19115 -22429,20920 -3810,-2559 -5786,-7005 -7742,-10401l-40501 -64355c-1280,-1845 -1101,-1163 -2484,-3564l-25895 -42667 -6061 0c-1255,1878 -1053,1746 -2182,3866 -863,1623 -1008,1847 -2260,3789 -1469,2280 -880,1210 -2177,3873 -1675,3441 -238,1011 -2170,3880l-52034 93150c-1685,3321 -5668,10163 -8546,12625l-2213 1820z"/>
    <path class="fil0" d="M0 306724l0 73600c0,2367 1672,4038 4038,4038l319608 0c3101,0 6055,-933 6055,-4038l0 -73600c0,-2367 -1673,-4039 -4039,-4039l-321624 0c-2366,0 -4038,1672 -4038,4039z"/>
   </g>
   <g>
    <path class="fil0" d="M1791178 40164l0 352815c0,3881 1029,8610 4785,8610l263894 0c2306,0 2813,-1548 4787,-2868l0 -45904c-12819,-2984 -8088,-1912 -23909,-1912l-187398 0c-1386,-2071 -2868,-3180 -2868,-6688 0,-12048 -924,-92860 713,-97766 1653,-4954 5721,-4621 11693,-4555l131966 19c21790,13 17215,5795 17215,-43987 0,-2583 -457,-2640 -956,-4786 -27554,-2290 -114196,-1095 -146296,-953 -7725,34 -14335,1250 -14335,-6691 0,-11357 -771,-90479 647,-94964 1764,-5577 6648,-4494 15601,-4470l176889 4c6050,23 8826,-580 13388,-959l0 -47817c-2144,-499 -2201,-955 -4785,-955l-257201 0c-2244,0 -3830,1584 -3830,3830z"/>
    <path class="fil0" d="M2751145 240948c-8456,0 -8811,-3498 -7454,-10237 2552,-12669 4623,-18975 10308,-29932l7883 -11238c10872,-10860 22640,-19287 38678,-21556 17669,-2500 17388,-1808 33950,122 25017,2915 47032,26892 52790,50466 3598,14729 8292,22375 -6092,22375l-130064 0zm-68846 19127c0,15772 1950,38010 6586,52696 1703,5398 1509,8351 3930,13282 3921,7988 3806,10904 11166,23255 4968,8336 8998,13407 15361,20015 8535,8863 13715,12983 24099,18930l11312 5899c25528,13505 61461,14306 90031,12154 11372,-857 35432,-6450 44954,-11461 1858,-978 1283,-994 3622,-2113l6813 -3708c10878,-7613 9633,-5208 22368,-17790 6089,-6015 16029,-19815 17923,-27981l-34070 -14695c-5560,-1848 -9924,-4190 -12790,-4427 -2228,2117 -3538,4111 -5327,7103 -4336,7249 -12208,15787 -19927,19273 -2147,972 -1780,544 -3971,1766 -15377,8564 -43327,9948 -61373,7006l-14694 -4427c-2574,-982 -3176,-1798 -5641,-2963 -7702,-3639 -8342,-5056 -14183,-9720 -9940,-7940 -20764,-26640 -23193,-37997l-3708 -15409c6623,-4436 15417,-2868 26768,-2868 49400,0 98802,0 148202,0 32171,0 28299,2772 29698,-15249 2385,-30724 -242,-55845 -12463,-83261 -9565,-21455 -22729,-36228 -42506,-49286 -16277,-10748 -38153,-15845 -57190,-18347 -14634,-1923 -18394,-1143 -32225,-185l-29029 5394c-2833,1148 -3411,1470 -6478,2127 -5590,1198 -19214,7663 -23929,10495 -12918,7761 -23193,17008 -32147,29047 -2432,3273 -5135,6865 -6967,10244l-5911 11299c-3755,6450 -6646,18081 -8812,25610 -4172,14504 -6299,31702 -6299,46292z"/>
    <path class="fil0" d="M2430835 131953l0 33465c0,1334 1604,3703 2356,4342 1766,1499 3247,1430 6184,1470 11908,160 36822,-1629 44047,1842 4124,17689 -2014,157030 2327,175513 2079,8854 3930,13925 7629,22012 6013,13152 18423,22807 31202,29038 2336,1139 5187,1559 7983,2535 19838,6934 38638,5653 59081,3418 9906,-1083 27712,-6128 36038,-11771 16663,-11293 16437,-5139 8371,-31077 -1199,-3854 -1258,-6053 -2821,-9609 -1539,-3501 -2616,-6025 -3512,-9876 -3813,316 -7226,2468 -9966,4384 -1775,1241 -2264,1851 -3921,2772 -21010,11681 -58097,12801 -68223,-11095 -1941,-4579 -3942,-7865 -3942,-14223l0 -149158c0,-2291 1552,-2809 2868,-4776l74574 0c4129,0 8441,151 12527,97 4986,-66 6601,-1083 6601,-5838 0,-10210 1113,-30314 -956,-39207 -8993,-4308 -71622,-1930 -88047,-1834 -8659,51 -7602,-1257 -7569,-14414l74 -57440c27,-5825 -237,-7582 -4856,-7582 -4097,0 -6702,722 -9544,1932l-19011 5849c-3066,994 -6481,1203 -10251,2177 -3839,994 -4602,2080 -8474,3000 -10078,2393 -7225,-245 -7225,30073 0,7966 -56,15953 14,23917 137,15464 -219,12502 -36343,12410 -8541,-22 -17214,-828 -17214,7655z"/>
    <path class="fil0" d="M2135388 3830l0 326044c0,21331 2947,41752 16534,58049 25741,30877 93130,17583 99769,10442 3793,-4082 3894,-20376 6642,-33525 1465,-7007 907,-6007 407,-12024 -8032,0 -42578,11617 -55731,-682 -4991,-4667 -6989,-10370 -7414,-17441 -2241,-37240 -916,-106176 -916,-145372 0,-58877 872,-124103 97,-182721 -66,-4986 -1083,-6601 -5839,-6601l-49719 0c-2243,0 -3829,1586 -3829,3830z"/>
    <path class="fil0" d="M2310361 130997l0 266762c0,2244 1585,3830 3829,3830l49600 0c3060,0 5861,-884 5861,-3830l0 -266762c0,-5431 -4302,-6698 -9567,-6698l-44879 0c-3157,0 -4845,3470 -4845,6698z"/>
    <path class="fil0" d="M2300799 36339c0,14374 -1031,20611 10731,32300 8770,8715 18639,8819 31344,8819 20898,0 36338,-12685 36338,-35382 0,-8777 -1192,-17788 -6435,-24166 -13401,-16307 -43337,-18591 -59983,-5915 -7335,5584 -11995,14029 -11995,24344z"/>
   </g>
   <path class="fil1" d="M500871 254078c0,-8193 1542,-16512 2828,-24179 1864,-11091 5837,-20012 10645,-29452 2067,-4074 3046,-5081 5081,-8417 1578,-2595 6674,-9155 8681,-11355l10047 -10033c4669,-4217 5579,-4401 9519,-7569 2658,-2133 7026,-4608 10095,-6359l9081 -4438c1391,-683 3184,-1243 4764,-1786 1771,-609 3332,-1084 5311,-1630l3852 -1048c795,-222 441,-193 1215,-422 2692,-792 8357,-1901 11315,-2035 2184,-98 3882,-540 6202,-691 4920,-323 14918,-307 19465,63l11993 1693c3611,1009 7013,1736 10609,2862 7599,2385 20815,8423 26843,13262 6843,5494 7040,4767 14527,12121l3315 3587c1018,1011 2019,2072 3237,3337l4678 5512c2102,2526 7819,11129 9301,14054 4464,8801 6941,13332 9696,23496 1253,4633 1508,7363 2323,11213l1571 11635 0 15455c0,5772 -1901,12863 -2673,17807 -1039,6657 -5550,19417 -8418,24760l-6174 10951c-4646,6199 -7904,11116 -13399,16861l-666 640c-407,379 -407,359 -856,790 -8437,8067 -7548,7314 -16308,13945 -4275,3239 -17235,10399 -24239,12628l-13109 3635c-3102,1049 -6872,1008 -8784,1295 -7238,1090 -8376,738 -15968,738 -8473,0 -6117,-302 -12826,-842 -3952,-320 -5248,-634 -8612,-1550 -9245,-2514 -13555,-3202 -22280,-7630 -2482,-1262 -11041,-5942 -12962,-7424 -2856,-2209 -4911,-3374 -7659,-5852 -5992,-5388 -7813,-5902 -13598,-13018 -4685,-5756 -4313,-4705 -8781,-11293 -5225,-7706 -10656,-18220 -13242,-26892 -3810,-12802 -5643,-25043 -5643,-38428zm832108 -210792l-169463 0c0,1218 -287,31691 194,32750 389,842 59,323 712,822 828,511 125607,231 147224,231 4261,0 18146,505 21106,-227 543,-2176 227,-29026 227,-33576zm345395 356614c418,-1288 171,-40720 171,-43139 0,-5607 250,-127880 -130,-128993l0 -275c-299,-375 -557,-199 -633,-2021 -436,-11575 -1131,-17841 -2857,-29416 -2310,-15481 -8014,-30871 -15528,-43029 -497,-808 -1722,-2552 -2287,-3299l-2583 -3333c-615,-787 -701,-1086 -1236,-1741l-4304 -4571c-966,-1045 -1747,-1794 -2830,-2754 -1159,-1035 -1882,-1779 -3027,-2914l-9965 -7441c-4499,-2706 -4895,-3426 -11156,-6612 -9398,-4784 -25515,-9888 -36704,-9931 -3785,-14 -7687,-465 -11525,-162 -12883,1015 -17158,867 -30261,5058 -2921,936 -5792,1669 -8544,2948 -3890,1809 -8244,3352 -11917,5498 -5200,3034 -13228,8076 -17593,11675 -2257,1863 -4296,3731 -6433,5422l-22458 24295c-1386,-5176 1141,-44285 -804,-47625 -1534,-358 -28276,-737 -33066,-171 -11,0 -768,101 -842,115 -90,20 -183,39 -275,61l-1110 949c-189,645 -68,-9 -170,799l-33 276195c-2,674 -80,3509 574,4081 1427,552 32637,653 34949,107 1131,-804 553,-37655 553,-41680l0 -84845c0,-13990 786,-27564 1849,-41042 884,-11109 2328,-16209 5573,-25918 3380,-10109 9424,-18915 15537,-27228 3662,-4980 13437,-14908 18747,-18406 1130,-743 2131,-1279 3135,-2128 4596,-3894 16154,-8833 21399,-10858 10734,-4143 26125,-5609 37960,-4149 2826,349 6492,648 9225,1274l8431 2425c2545,905 4910,1877 7472,3044 9328,4262 16510,12023 22291,20123 2428,3401 5717,9697 7317,13747 2105,5345 4647,15153 5459,21164 1107,8190 1908,16544 2119,24856 699,27905 675,56165 675,84530 0,8875 -478,83122 236,84845 2105,1070 29803,470 34596,470zm-535048 -146152c0,-10591 2653,-24022 5795,-33912 1168,-3674 4090,-10419 5786,-13951 1551,-3218 5449,-9640 7355,-12360 3251,-4626 7929,-10861 11735,-14598 1168,-1152 2023,-2247 3187,-3397l10389 -9336c2550,-1808 4884,-3795 7619,-5539 1424,-908 2530,-1473 4061,-2514l13221 -6518c4990,-1851 15245,-4998 20616,-5564 3681,-388 8296,-1141 12114,-1141 10645,0 19499,382 29826,3370 5039,1456 9932,2861 14568,5174 9904,4932 13133,6790 21984,13528l5125 4406c2189,2031 4238,4187 6464,6380 1666,1646 10176,11599 11836,14137 1034,1595 1761,2390 2680,3898 953,1551 1562,2536 2505,4066 7937,12903 15018,34662 15018,49597 0,7300 357,19108 -1357,26065 -837,3400 -1597,7422 -2382,10778 -2298,9798 -6604,19109 -11703,27770l-2633 3947c-2612,4166 -3352,4538 -5531,7626 -943,1331 -1857,2329 -2998,3585 -3331,3665 -5744,6873 -9771,9964 -1008,773 -2449,2186 -3430,3131 -5422,5231 -10436,7346 -15463,10873 -3023,2124 -15142,7129 -18263,8039 -5095,1489 -13031,2827 -16028,3698 -2161,629 -3679,265 -5964,585 -5844,823 -13046,725 -19098,574 -2096,-49 -3378,-655 -5917,-691 -1020,-13 -1920,-55 -2882,-277 -12047,-2789 -14755,-2708 -27714,-8436 -6397,-2831 -10924,-6068 -16379,-9939 -5950,-4221 -4674,-3976 -8977,-7471 -3160,-2569 -8704,-8481 -11239,-11787 -4923,-6410 -6747,-9042 -10548,-15780 -3255,-5755 -5911,-11936 -7998,-18263 -4296,-12993 -5611,-25803 -5611,-39716zm247316 8878c1603,-11020 -933,-30240 -3289,-41100 -1459,-6727 -3731,-14140 -6326,-20353 -5921,-14147 -9258,-19620 -17737,-31955l-5876 -7277c-2217,-2462 -3961,-4938 -6232,-7242l-14588 -13699c-5299,-4510 -11540,-8930 -17495,-12422 -6667,-3910 -14031,-7605 -21419,-10154 -1184,-409 -1979,-660 -3207,-1087 -17288,-5994 -36902,-7847 -55500,-6891 -2756,140 -12867,1086 -15936,1753 -4876,1061 -9823,2406 -14547,3554 -5595,1362 -14424,4856 -19529,7458 -1059,540 -2159,1015 -3076,1511 -9317,5037 -16238,9516 -24219,15910l-11819 10537c-2387,2185 -4311,4737 -6464,7024 -778,830 -1430,1485 -2182,2422l-9655 12703c-1221,1796 -2170,3467 -3484,5396 -1048,1536 -2231,3834 -3205,5684 -5498,10402 -9546,19576 -12707,32037 -4725,18613 -4882,29708 -4674,48836 23,2630 482,5503 744,8097 766,7628 2215,15361 4264,22652 573,2041 1365,4549 2016,6848 1866,6624 5132,12822 8001,18970 5715,12266 16526,26704 26182,36312l4677 4514c1441,1240 3096,2900 4621,4284 952,868 1608,1300 2602,1990 3472,2402 6692,5469 10247,7848 891,596 1739,1044 2634,1636 1980,1319 3561,2133 5500,3379 8398,5396 21697,10738 31603,13149l10978 2459c1057,294 2442,242 3783,559 4912,1170 10592,1365 15969,1688 5869,350 12220,235 17756,-177 1509,-115 3043,53 4556,-62l7838 -983c5912,-991 12703,-2297 18482,-3973 4466,-1291 8664,-3010 13139,-4590 4451,-1571 8089,-3764 12296,-5796 6255,-3021 11002,-6686 16482,-10488l7483 -6011c1044,-895 1211,-1184 2272,-1989 4132,-3151 7954,-7598 11400,-11296 3270,-3503 7316,-8335 9974,-12053l3793 -5435c3944,-6146 6220,-9925 9775,-16831 4323,-8407 7058,-16981 9663,-26205 2153,-7629 3289,-14964 3992,-22787 207,-2351 113,-6060 443,-8358zm-561432 -35588c373,-2763 1748,-6161 2591,-8759 3920,-12115 13439,-31959 22259,-41243 1182,-1251 1421,-1996 2468,-3111 1796,-1911 3476,-3306 5615,-5578 2956,-3130 12802,-9989 16739,-12202 9781,-5499 21411,-8627 32346,-10679l7710 -795c4546,-406 17991,-389 22285,279 3385,527 6846,634 10174,1384 5541,1245 12419,3191 17750,5237 7085,2712 19304,9320 25656,14477 5208,4231 10532,8712 14719,13894 4070,5036 8757,11480 11555,17400l7895 20672c757,3004 1821,5973 2014,9015 -729,219 -330,236 -1215,236 -20593,3 -195870,497 -200562,-227zm-3780 31224c4011,-717 15538,-144 20486,-144l216424 0c2559,0 8113,1081 8154,-2028 63,-4088 -1548,-22600 -2886,-28022 -695,-2807 -1053,-5663 -1605,-8571 -1027,-5406 -2891,-10911 -4517,-16176 -1605,-5195 -3675,-10058 -5789,-14623 -4300,-9294 -9431,-17868 -15684,-25750 -894,-1127 -1278,-1846 -2285,-2982l-3649 -4230c-3541,-4225 -7546,-7734 -11637,-11398 -3862,-3466 -13198,-11114 -17635,-13271 -1308,-639 -10244,-6183 -12998,-7419l-10920 -4526c-4855,-2052 -10401,-3122 -15659,-4673 -10674,-3157 -24404,-4231 -37088,-4235 -13320,-3 -23939,1572 -36571,4722 -7812,1948 -15609,4861 -22585,8284 -5705,2794 -11391,6096 -16441,9557 -969,670 -1826,1493 -2753,2190 -695,518 -922,518 -1660,985 -2614,1657 -4806,3921 -7065,5758 -1021,830 -1630,1162 -2716,2195 -6982,6639 -13917,13845 -19775,21658 -840,1119 -1463,1704 -2310,2961l-2143 3128c-3542,4889 -6821,10649 -9474,16187 -3973,8278 -8011,16714 -9994,25828 -598,2767 -1423,5480 -2000,8241 -1864,9011 -3136,18308 -3449,27550 -332,9897 423,19668 1644,29496 759,6130 3687,19063 5805,24996 5199,14539 12228,27996 21249,40307 1514,2073 3193,3711 4491,5703l15167 15728c2903,2879 5483,4624 8455,7000 1204,962 2074,1391 3060,2197l5961 4250c16621,10530 33658,16102 53114,19312 1568,262 3154,193 4768,420 5150,733 9206,478 14231,931 3578,319 6732,-139 10211,-116 7536,49 9473,-886 14474,-1125 3972,-189 17861,-3299 21123,-4280 5175,-1559 10338,-3208 15364,-5377 5874,-2532 11531,-5446 16797,-8843l17890 -13033c893,-716 1794,-1626 2556,-2379 13384,-13282 17629,-18248 27941,-33888 1805,-2744 6848,-10707 7207,-13204 -2771,-2359 -7377,-4176 -10861,-5913l-7238 -3969c-1273,-665 -2533,-1164 -3780,-1804 -2578,-1329 -4278,-2397 -7090,-3662 -730,475 -977,651 -1522,1655l-3289 5577c-2058,3707 -4358,7452 -6941,10841l-9385 11321c-623,758 -573,929 -1270,1692 -966,1047 -1945,1934 -2969,2957l-6208 5632c-8456,7746 -19049,13833 -29732,17897 -5977,2274 -12152,3440 -18461,5276 -3279,955 -6813,899 -10338,1407 -5092,730 -18148,991 -23367,497 -6647,-629 -13630,-1924 -20050,-4005 -6562,-2127 -11015,-3861 -16942,-6758 -2929,-1427 -4831,-2815 -7434,-4401 -4294,-2622 -9612,-6713 -13422,-10263 -1561,-1452 -3275,-2807 -4521,-4351 -466,-579 -766,-930 -1401,-1556 -3488,-3406 -6352,-7709 -9408,-11671l-3448 -5404c-3935,-6270 -6689,-13394 -9301,-20285 -2321,-6126 -3328,-12088 -4730,-18965 -747,-3654 -2797,-17807 -2179,-21027zm-356441 -141018c-438,1145 -126,9773 -199,11512 -67,1520 22,1626 -14,2834 -42,1523 -20,1662 -3,3059l3 29154c288,9686 -361,20642 14,29144 310,7093 -91,16121 -17,23258l43 17404c-288,6182 91,16930 12,23343 -44,4059 -17,7844 -55,11654 -82,8351 252,17767 3,26093 -42,1522 -20,1663 -3,3060 20,1855 -75,3824 32,5874l-32 46525c-82,8354 252,17770 3,26097l-3 29151c-17,1397 -39,1535 3,3060l-118 81726 34941 0c0,-24333 0,-48669 0,-73004 0,-6260 -512,-67671 340,-72275 969,598 1141,773 1856,1602 734,866 1047,1193 1703,1912 807,881 872,1056 1604,2025l16010 15565c3860,3570 11640,9475 15809,12127 3549,2257 7153,4672 10972,6453 906,418 1322,840 2287,1344 6519,3433 18228,7973 25252,9658l8714 1995c1132,175 1827,164 2960,491 2253,649 3951,406 6346,907 2510,519 3636,290 6365,486 8990,644 12821,-69 20423,-26l9522 -998c1216,-184 1424,-467 2661,-664 7550,-1191 15216,-3072 22236,-5693 8878,-3317 15792,-6630 23732,-11474l16244 -11705c4967,-4193 12198,-10927 16009,-15578 1551,-1895 2867,-2775 4881,-5631l6065 -7757c2824,-4139 8864,-13206 10680,-17256 1555,-3467 3093,-5962 4564,-9616 3951,-9797 7850,-21815 9433,-32283 2487,-16464 2834,-35967 -62,-52385 -654,-3701 -1911,-7830 -2573,-11476 -576,-3163 -2039,-7693 -3167,-10717 -3532,-9443 -4213,-10784 -8506,-19454 -1583,-3204 -3435,-5832 -5232,-8911 -1995,-3416 -9055,-12872 -11904,-16046l-13676 -14279c-5025,-4767 -5118,-4427 -9324,-8085 -676,-588 -1176,-1108 -1994,-1661 -1448,-985 -2510,-2078 -3918,-2967 -10593,-6720 -13344,-9216 -26925,-14829 -7990,-3301 -24413,-8146 -33543,-8838 -4581,-348 -8486,-495 -13100,-874 -7906,-652 -19270,411 -26516,1574 -889,142 -2139,115 -3222,354 -1149,248 -1702,529 -2896,686l-5657 1292c-13336,3918 -22518,7075 -34418,14583 -1784,1125 -1295,1212 -4097,2816 -2745,1563 -8803,6630 -12052,8999l-13994 13944c-725,922 -707,1078 -1618,2016 -2021,2087 -4669,5935 -6122,7680 -579,686 -917,971 -1569,1642 -1306,-1757 -485,-39900 -544,-46321 -29,-2412 -490,-2307 -3049,-2316l-31598 17z"/>
   <path class="fil2" d="M2380748 532614c11525,0 21852,2544 30982,7634 9129,5088 16276,12198 21440,21327 5163,9130 7745,19682 7745,31655 0,11974 -2582,22563 -7745,31767 -5164,9205 -12311,16352 -21440,21440 -9130,5089 -19457,7634 -30982,7634 -8830,0 -16913,-1722 -24247,-5164 -7334,-3442 -13395,-8456 -18185,-15042l0 18859 -20654 0 0 -166583 21552 0 0 65555c4790,-6286 10776,-11039 17961,-14256 7184,-3218 15042,-4827 23573,-4827zm-1796 102599c7634,0 14481,-1758 20543,-5276 6061,-3517 10851,-8456 14368,-14817 3517,-6361 5276,-13657 5276,-21889 0,-8232 -1759,-15528 -5276,-21889 -3517,-6361 -8307,-11263 -14368,-14705 -6062,-3442 -12910,-5163 -20543,-5163 -7483,0 -14293,1721 -20429,5163 -6137,3442 -10927,8344 -14369,14705 -3442,6361 -5163,13657 -5163,21889 0,8232 1721,15528 5163,21889 3442,6361 8232,11300 14369,14817 6136,3518 12946,5276 20429,5276z"/>
   <path id="_1" class="fil2" d="M2521738 654072c-11824,0 -22451,-2620 -31879,-7858 -9429,-5239 -16800,-12461 -22114,-21665 -5313,-9205 -7971,-19644 -7971,-31318 0,-11674 2657,-22114 7971,-31318 5313,-9205 12685,-16389 22114,-21552 9429,-5164 20056,-7746 31879,-7746 11825,0 22413,2582 31767,7746 9355,5163 16689,12348 22001,21552 5313,9205 7971,19644 7971,31318 0,11674 -2657,22114 -7971,31318 -5312,9205 -12646,16427 -22001,21665 -9354,5238 -19943,7858 -31767,7858zm0 -18859c7634,0 14481,-1758 20542,-5276 6062,-3517 10815,-8456 14257,-14817 3442,-6361 5163,-13657 5163,-21889 0,-8232 -1721,-15528 -5163,-21889 -3442,-6361 -8195,-11263 -14257,-14705 -6061,-3442 -12909,-5163 -20542,-5163 -7633,0 -14480,1721 -20542,5163 -6061,3442 -10851,8344 -14368,14705 -3517,6361 -5276,13657 -5276,21889 0,8232 1759,15528 5276,21889 3517,6361 8307,11300 14368,14817 6062,3518 12910,5276 20542,5276z"/>
   <path id="_2" class="fil2" d="M2655544 532614c16463,0 29073,4041 37829,12123 8756,8082 13134,20130 13134,36145l0 71842 -20430 0 0 -15715c-3592,5537 -8718,9766 -15378,12685 -6661,2919 -14556,4378 -23686,4378 -13320,0 -23985,-3218 -31992,-9654 -8008,-6436 -12011,-14893 -12011,-25369 0,-10476 3817,-18896 11449,-25257 7634,-6361 19757,-9541 36370,-9541l34125 0 0 -4266c0,-9280 -2695,-16389 -8083,-21328 -5388,-4939 -13320,-7409 -23797,-7409 -7035,0 -13920,1160 -20655,3480 -6735,2320 -12422,5425 -17062,9317l-8980 -16164c6136,-4939 13471,-8718 22001,-11337 8531,-2619 17586,-3929 27166,-3929zm-4939 104844c8231,0 15341,-1834 21327,-5501 5987,-3666 10327,-8868 13022,-15603l0 -16613 -33227 0c-18260,0 -27390,6137 -27390,18410 0,5987 2319,10702 6959,14144 4639,3442 11076,5164 19308,5164z"/>
   <path id="_3" class="fil2" d="M2767123 553717c3742,-6885 9280,-12123 16613,-15715 7334,-3592 16239,-5388 26716,-5388l0 20879c-1197,-150 -2844,-225 -4939,-225 -11674,0 -20842,3480 -27503,10440 -6660,6959 -9990,16875 -9990,29747l0 59269 -21552 0 0 -118988 20654 0 0 19981z"/>
   <path id="_4" class="fil2" d="M2948075 486141l0 166583 -20654 0 0 -18859c-4790,6586 -10852,11600 -18186,15042 -7334,3442 -15415,5164 -24246,5164 -11525,0 -21852,-2544 -30982,-7634 -9130,-5088 -16276,-12235 -21440,-21440 -5163,-9205 -7746,-19793 -7746,-31767 0,-11973 2583,-22525 7746,-31655 5164,-9129 12310,-16239 21440,-21327 9130,-5089 19457,-7634 30982,-7634 8531,0 16388,1609 23573,4827 7184,3217 13171,7970 17961,14256l0 -65555 21552 0zm-61290 149071c7484,0 14294,-1758 20430,-5276 6137,-3517 10927,-8456 14369,-14817 3442,-6361 5163,-13657 5163,-21889 0,-8232 -1721,-15528 -5163,-21889 -3442,-6361 -8232,-11263 -14369,-14705 -6136,-3442 -12946,-5163 -20430,-5163 -7633,0 -14480,1721 -20542,5163 -6061,3442 -10851,8344 -14368,14705 -3517,6361 -5276,13657 -5276,21889 0,8232 1759,15528 5276,21889 3517,6361 8307,11300 14368,14817 6062,3518 12910,5276 20542,5276z"/>
  </g>
 </g>
</svg>
